<svg width="37" height="24" viewBox="0 0 37 24" fill="none" xmlns="http://www.w3.org/2000/svg">
<path fill-rule="evenodd" clip-rule="evenodd" d="M20.1982 0.229611L36.0742 10.2316C36.5122 10.5076 36.7742 10.9856 36.7742 11.5016C36.7742 12.0156 36.5122 12.4956 36.0742 12.7696L20.1982 22.7716C19.9562 22.9256 19.6782 23.0036 19.4002 23.0036C19.1502 23.0036 18.9022 22.9396 18.6762 22.8156C18.1962 22.5516 17.9002 22.0496 17.9002 21.5036L17.8982 13L1.50018 13.0008C0.672183 13.0008 0.000183105 12.3288 0.000183105 11.5008C0.000183105 10.6728 0.672183 10.0008 1.50018 10.0008L17.8982 10L17.9002 1.49961C17.9002 0.951611 18.1962 0.449611 18.6762 0.185611C19.1542 -0.0763887 19.7402 -0.0603887 20.1982 0.229611ZM20.9002 4.21761L20.8999 11.4704C20.9001 11.4805 20.9002 11.4907 20.9002 11.5008L20.8982 11.53L20.9002 18.7836L32.4602 11.5016L20.9002 4.21761Z" fill="white"/>
</svg>
